# Alias OBJ Model File
# Exported from SketchUp, (c) 2000-2012 Trimble Navigation Limited
# File units = meters

mtllib Painting-012.mtl

g Mesh1 Group1 Model

usemtl Art_012
v 0.686469 -0.764507 0.0399997
vt 1 2.10751e-16
vn -7.15583e-09 -1 -4.38551e-15
v -0.686469 -0.764507 0.0399997
vt 1.52228e-09 6.90849e-17
v -0.686469 -0.764507 -3.05268e-07
vt 1.09195e-09 2.50742e-16
v 0.686469 -0.764507 -3.29526e-07
vt 1 2.73882e-16
f 1/1/1 2/2/1 3/3/1 4/4/1 

vn 7.15583e-09 1 4.38551e-15
f 4/4/2 3/3/2 2/2/2 1/1/2 

usemtl Color_M00
vt -54.0527 3.21709e-16
vn -1.76687e-08 2.05169e-15 -1
vt -2.78248e-08 3.86792e-07
v -0.686469 0.758179 -3.05268e-07
vt -4.56804e-07 59.9483
v 0.686469 0.758179 -3.29526e-07
vt -54.0527 59.9483
f 4/5/3 3/6/3 5/7/3 6/8/3 

usemtl Art_012
vt 1 1
vn 1.76687e-08 -2.05169e-15 1
vt 6.61609e-10 1
vt 6.6161e-10 3.66491e-16
vt 1 3.89631e-16
f 6/9/4 5/10/4 3/11/4 4/12/4 

v -0.686469 0.758179 0.0399997
vt -0.0017831 0.96961
vn 7.15583e-09 1 -1.26434e-16
v 0.686469 0.758179 0.0399997
vt 0.998217 0.96961
vt 0.998217 0.995879
vt -0.0017831 0.995879
f 7/13/5 8/14/5 6/15/5 5/16/5 

vt 1.09194e-09 1
vn -7.15583e-09 -1 1.26434e-16
vt 1.52228e-09 1
f 5/17/6 6/9/6 8/9/6 7/18/6 

vn 1 -7.15583e-09 -1.76687e-08
f 8/9/7 1/1/7 4/4/7 6/9/7 

vn -1 7.15583e-09 1.76687e-08
f 6/9/8 4/4/8 1/1/8 8/9/8 

vt 1.29098e-09 6.75925e-17
vn 1.76687e-08 -2.05248e-15 1
vt 1 2.09259e-16
vt 1.29098e-09 1
f 2/19/9 1/20/9 8/9/9 7/21/9 

vn -1.76687e-08 2.05248e-15 -1
f 7/21/10 8/9/10 1/20/10 2/19/10 

f 2/2/8 7/18/8 5/17/8 3/3/8 

f 3/3/7 5/17/7 7/18/7 2/2/7 

